<?xml version="1.0" encoding="UTF-8" standalone="no"?>
<svg
   xmlns:dc="http://purl.org/dc/elements/1.1/"
   xmlns:cc="http://creativecommons.org/ns#"
   xmlns:rdf="http://www.w3.org/1999/02/22-rdf-syntax-ns#"
   xmlns:svg="http://www.w3.org/2000/svg"
   xmlns="http://www.w3.org/2000/svg"
   xmlns:sodipodi="http://sodipodi.sourceforge.net/DTD/sodipodi-0.dtd"
   xmlns:inkscape="http://www.inkscape.org/namespaces/inkscape"
   version="1.1"
   width="184.10123"
   height="152.72034"
   id="LO"
   inkscape:version="0.48.2 r9819"
   sodipodi:docname="makeflashcards.svg">
  <metadata
     id="metadata3001">
    <rdf:RDF>
      <cc:Work
         rdf:about="">
        <dc:format>image/svg+xml</dc:format>
        <dc:type
           rdf:resource="http://purl.org/dc/dcmitype/StillImage" />
        <dc:title />
      </cc:Work>
    </rdf:RDF>
  </metadata>
  <defs
     id="defs2999">
    <marker
       inkscape:stockid="Arrow2Lstart"
       orient="auto"
       refY="0"
       refX="0"
       id="Arrow2Lstart"
       style="overflow:visible">
      <path
         id="path3810"
         style="font-size:12px;fill-rule:evenodd;stroke-width:0.625;stroke-linejoin:round"
         d="M 8.7185878,4.0337352 -2.2072895,0.01601326 8.7185884,-4.0017078 c -1.7454984,2.3720609 -1.7354408,5.6174519 -6e-7,8.035443 z"
         transform="matrix(1.1,0,0,1.1,1.1,0)"
         inkscape:connector-curvature="0" />
    </marker>
    <marker
       inkscape:stockid="Arrow1Lstart"
       orient="auto"
       refY="0"
       refX="0"
       id="Arrow1Lstart"
       style="overflow:visible">
      <path
         id="path3792"
         d="M 0,0 5,-5 -12.5,0 5,5 0,0 z"
         style="fill-rule:evenodd;stroke:#000000;stroke-width:1pt;marker-start:none"
         transform="matrix(0.8,0,0,0.8,10,0)"
         inkscape:connector-curvature="0" />
    </marker>
  </defs>
  <sodipodi:namedview
     pagecolor="#ffffff"
     bordercolor="#666666"
     borderopacity="1"
     objecttolerance="10"
     gridtolerance="10"
     guidetolerance="10"
     inkscape:pageopacity="0"
     inkscape:pageshadow="2"
     inkscape:window-width="1280"
     inkscape:window-height="968"
     id="namedview2997"
     showgrid="false"
     inkscape:zoom="0.89393939"
     inkscape:cx="-203.04913"
     inkscape:cy="111.45762"
     inkscape:window-x="-4"
     inkscape:window-y="-4"
     inkscape:window-maximized="1"
     inkscape:current-layer="g2993"
     fit-margin-top="0"
     fit-margin-left="0"
     fit-margin-right="0"
     fit-margin-bottom="0" />
  <g
     id="g2993"
     transform="matrix(0.61016949,0,0,0.61016949,24.440213,-5.8982994)">
    <g
       id="g4451" />
    <g
       id="g3012"
       transform="matrix(1.1428843,0,0,1.1428843,-14.339897,-16.048228)">
      <g
         transform="matrix(0,-1,-1,0,241.5,241.49999)"
         id="g3011">
        <path
           d="m 123.5,6.5 -117,0 0,251 206,0 0,-162.03125 L 123.5,6.5 z"
           id="sheet"
           style="fill:#ffffff;stroke:#000000;stroke-width:13;stroke-linejoin:round"
           inkscape:connector-curvature="0" />
        <path
           d="m 212.5,61.53125 0,-55.03125 -55,0 55,55.03125 z"
           id="corner"
           style="stroke:#000000;stroke-width:13;stroke-linejoin:round"
           inkscape:connector-curvature="0" />
      </g>
      <g
         id="text3003"
         style="font-size:120.51322937px;font-style:normal;font-weight:normal;line-height:125%;letter-spacing:0px;word-spacing:0px;fill:#000000;fill-opacity:1;stroke:none;font-family:Sans">
        <path
           id="path3004"
           d="m 119.63635,198.58215 33.12937,-86.26581 12.29847,0 35.30661,86.26581 -13.0046,0 -10.06239,-26.12689 -36.07159,0 -9.47394,26.12689 z m 24.89116,-35.4243 29.24564,0 -9.00318,-23.8908 c -2.74612,-7.25741 -4.78605,-13.22029 -6.11982,-17.88868 -1.09846,5.53144 -2.64803,11.02357 -4.6487,16.47641 z"
           inkscape:connector-curvature="0" />
      </g>
      <path
         inkscape:connector-curvature="0"
         id="text3007"
         d="m 39.681144,50.367585 c -4.05513,3.2384 3.09157,5.46835 1.84375,9.6875 -0.81715,3.55117 0.35868,9.770363 -5.05067,8.965843 -6.14616,0.63232 -15.04983,2.51235 -18.60558,-4.278343 -3.98223,3.062343 -2.79786,7.927733 1,10.187503 5.65718,4.0174 13.08177,3.32276 19.65625,2.75 -1.16216,5.34552 -0.71574,11.41542 -1.78125,16.4375 -11.119,7.178392 -22.75703,17.196352 -25.09375,30.906252 0.33584,4.26013 1.71762,8.44562 3,12.5 4.73994,7.60844 15.8584,4.91533 21.78125,0.15625 2.32994,-1.56678 4.44196,-3.37424 6.53125,-5.25 1.87233,4.15946 5.1205,12.05498 10.9375,9.1875 4.38135,-3.65902 0.80891,-9.36716 -1.78125,-12.8125 -1.86267,-2.6086 -2.11008,-5.13533 0.71875,-7.03125 6.79585,-8.79795 12.6735,-18.6886 15.15625,-29.562502 11.79679,-1.13208 25.54004,7.983932 23.625,21.000002 -0.9678,16.27927 -16.16362,28.15475 -31.65625,29.53125 -3.63633,0.92147 -2.11089,8.426 2.625,6.09375 17.6961,-2.07688 35.832924,-14.34623 38.875006,-32.8125 2.38716,-12.28672 -4.233242,-25.835372 -16.281256,-30.000002 -5.26793,-2.14884 -11.09876,-2.71301 -16.6875,-2.71875 -1.3787,-4.01035 -5.40892,-6.1337 -8.875,-8.09375 -2.84355,2.55914 -2.46001,4.70833 -0.59375,7.40625 1.84687,3.20085 -3.84214,2.13945 -5.5,3.46875 -2.38825,0.80398 -4.7165,1.73896 -6.96875,2.8125 0.48577,-4.19757 0.25158,-9.33658 2.09375,-12.8125 9.6736,-2.31412 19.91166,-4.48645 28.53125,-9.40625 3.57743,-2.820033 0.88452,-8.502283 -3.5625,-7.937503 -7.99845,0.21234 -15.00426,5.07348 -22.6875,6.96875 1.92875,-4.51154 1.74334,-10.35891 -3.0625,-12.90625 -2.30198,-0.99592 -6.52816,-5.21803 -8.1875,-2.4375 z m 18.125,44.468753 c -2.20769,6.564082 -6.16226,13.571602 -10.03125,18.718752 -0.75903,-4.73591 -1.23671,-9.59123 -1.3125,-14.437502 3.7324,-2.0356 7.59236,-3.83956 11.625,-5.09375 l -0.28125,0.8125 z m -20.5,11.406252 c -0.0331,5.85619 1.66245,12.04027 2.125,17.5 -5.35756,4.29226 -11.5527,12.22947 -19.28125,10.09375 -3.82096,-3.10239 0.3826,-8.84555 1.9375,-12.21875 3.95168,-6.4288 9.09199,-12.1523 15.15625,-16.65625 l 0.0487,0.99881 0.0138,0.28244 z"
         style="font-size:112.58298492px;font-style:normal;font-weight:normal;line-height:125%;letter-spacing:0px;word-spacing:0px;fill:#000000;fill-opacity:1;stroke:none;font-family:Sans" />
      <path
         style="fill:none;stroke:#000000;stroke-width:6;stroke-linecap:round;stroke-linejoin:miter;stroke-miterlimit:4;stroke-opacity:1;stroke-dasharray:none"
         d="M 59.288133,214.77966 C 66.000003,210.30508 155.49152,71.593222 155.49152,71.593222"
         id="path2992"
         inkscape:connector-curvature="0" />
    </g>
  </g>
</svg>
